<?xml version="1.0" encoding="UTF-8" ?>
<!DOCTYPE svg PUBLIC "-//W3C//DTD SVG 1.1//EN" "http://www.w3.org/Graphics/SVG/1.1/DTD/svg11.dtd">
<svg width="553pt" height="587pt" viewBox="0 0 553 587" version="1.1" xmlns="http://www.w3.org/2000/svg">
<path fill="#fffffe" opacity="1.00" d=" M 176.58 0.00 L 185.44 0.00 C 193.63 1.75 201.90 4.19 208.64 9.36 C 213.65 12.79 217.36 17.64 221.14 22.31 C 227.53 21.83 233.75 20.13 240.12 19.42 C 269.08 15.65 298.67 16.34 327.38 21.77 C 331.53 22.58 335.64 23.59 339.83 24.19 C 343.79 19.70 347.32 14.76 352.24 11.23 C 359.94 4.72 369.79 1.63 379.58 0.00 L 389.38 0.00 C 396.41 1.10 403.45 2.79 409.69 6.30 C 424.25 14.40 435.39 29.26 437.26 46.02 C 438.27 53.26 437.30 60.54 436.09 67.69 C 468.41 90.84 495.98 120.70 515.84 155.18 C 535.66 189.25 547.95 227.68 551.72 266.91 C 552.43 274.11 552.42 281.35 553.00 288.56 L 553.00 298.44 C 552.39 306.25 552.40 314.10 551.54 321.89 C 548.07 354.88 538.71 387.25 523.87 416.93 C 521.54 421.27 522.80 426.30 522.73 430.99 C 523.30 468.16 510.38 505.27 487.38 534.42 C 478.78 545.39 468.71 555.16 457.75 563.75 C 454.32 566.56 449.94 567.74 446.36 570.31 C 440.20 574.56 432.87 576.54 425.78 578.63 C 393.85 586.54 360.62 586.73 327.97 584.94 C 312.79 586.58 296.90 586.43 282.63 580.38 C 278.95 578.92 275.83 575.94 271.77 575.59 C 245.24 574.22 218.73 572.06 192.37 568.71 C 189.30 568.37 186.22 567.68 183.12 567.95 C 179.70 569.24 176.97 572.49 173.05 572.25 C 141.02 572.27 108.99 572.18 76.95 572.29 C 74.88 572.25 72.66 572.25 70.85 571.07 C 54.08 560.99 40.13 546.15 31.37 528.63 C 22.64 511.89 19.35 492.69 20.36 473.94 C 21.48 457.74 26.82 442.07 34.81 428.00 C 15.99 393.53 4.02 355.22 0.96 316.01 C 0.52 310.16 0.49 304.29 0.00 298.45 L 0.00 288.56 C 0.56 281.68 0.55 274.77 1.20 267.90 C 4.64 230.51 15.84 193.85 33.88 160.93 C 56.58 119.54 89.97 84.02 130.07 59.10 C 131.04 58.26 132.79 57.63 132.65 56.09 C 132.58 51.80 131.92 47.52 132.45 43.24 C 133.65 33.38 137.72 23.83 144.36 16.41 C 152.47 7.01 164.36 1.44 176.58 0.00 M 363.95 13.95 C 354.71 18.59 348.17 27.29 344.37 36.73 C 341.54 36.18 339.05 34.65 336.41 33.59 C 320.98 27.43 304.60 23.61 288.03 22.44 C 280.38 22.26 272.72 22.19 265.07 22.47 C 254.13 23.59 243.30 25.81 232.76 28.92 C 227.85 30.37 223.34 32.97 218.30 33.95 C 216.16 30.36 214.42 26.50 211.74 23.26 C 205.14 15.09 194.53 10.06 183.96 11.36 C 160.63 13.91 141.41 37.45 144.87 60.94 C 145.89 70.07 151.53 78.01 158.74 83.43 C 157.68 86.27 155.67 88.59 154.14 91.17 C 144.41 106.74 138.01 124.03 130.92 140.88 C 127.28 149.26 124.13 157.90 121.88 166.76 C 119.36 180.15 120.34 194.44 125.75 207.02 C 128.56 215.86 134.07 223.41 138.96 231.17 C 121.85 231.95 104.75 229.50 87.63 230.53 C 86.87 237.98 85.97 245.41 84.86 252.82 C 83.78 261.32 83.25 269.93 81.28 278.30 C 74.87 280.69 68.52 283.74 63.58 288.59 C 52.66 298.37 48.03 313.65 48.57 327.98 C 48.61 342.28 55.60 356.36 66.91 365.09 C 68.34 366.34 70.05 367.39 71.00 369.08 C 70.81 380.48 68.35 391.70 67.72 403.08 C 67.25 409.65 66.26 416.19 66.05 422.79 C 73.34 423.91 80.75 422.90 88.04 423.95 C 93.77 424.78 99.58 424.03 105.32 424.77 C 108.54 425.17 111.78 425.34 115.02 425.50 C 113.11 427.78 110.52 429.31 108.34 431.32 C 98.74 439.84 92.40 451.13 85.90 462.00 C 82.18 459.10 79.06 455.47 75.02 452.98 C 67.59 448.21 59.01 444.33 49.95 445.21 C 42.22 444.74 35.01 450.69 33.46 458.17 C 31.24 469.74 33.92 481.43 36.23 492.76 C 39.42 505.37 43.37 517.88 49.58 529.38 C 55.06 539.60 61.72 550.31 72.68 555.29 C 79.29 558.66 86.86 557.72 94.00 557.89 C 135.67 557.82 177.33 557.98 219.00 558.22 C 229.11 558.00 238.96 560.59 248.93 561.80 C 257.80 562.62 266.65 563.67 275.57 563.49 C 278.28 566.41 280.82 569.60 284.23 571.74 C 290.64 575.95 298.48 577.19 306.01 577.40 C 312.36 577.68 318.63 576.18 324.98 576.42 C 335.68 576.20 346.36 575.42 357.02 574.65 C 363.41 575.00 369.61 573.15 375.98 573.21 C 393.01 572.56 410.03 569.75 426.13 564.10 C 443.64 557.66 459.16 546.39 471.67 532.66 C 483.19 519.49 492.72 504.54 499.36 488.34 C 503.62 478.68 506.47 468.52 509.45 458.42 C 516.23 431.40 517.76 403.33 516.52 375.59 C 515.43 355.86 513.18 336.11 508.32 316.93 C 504.76 297.25 497.62 278.50 491.36 259.58 C 477.35 220.99 459.60 183.88 440.36 147.66 C 430.01 128.49 420.55 108.75 407.95 90.91 C 412.67 86.67 418.30 83.33 421.96 77.99 C 428.49 69.48 429.72 58.00 427.20 47.79 C 424.15 34.42 415.52 22.18 403.33 15.68 C 391.60 8.67 376.13 7.27 363.95 13.95 M 128.36 75.33 C 117.96 82.46 107.99 90.21 98.48 98.49 C 58.99 133.84 29.79 180.93 17.36 232.57 C 13.80 245.06 12.49 257.99 10.79 270.81 C 8.83 292.50 9.35 314.44 12.86 335.95 C 14.66 352.22 19.63 367.87 24.67 383.37 C 28.24 393.67 32.61 403.67 37.56 413.38 C 40.19 418.45 42.38 423.83 46.04 428.28 C 49.27 427.20 52.52 426.19 55.82 425.35 C 55.79 421.33 52.85 418.21 51.30 414.69 C 35.83 385.82 26.38 353.87 22.76 321.35 C 21.36 303.93 21.06 286.35 22.94 268.95 C 24.38 256.42 26.90 244.04 29.78 231.77 C 38.58 199.17 53.64 168.12 74.57 141.57 C 91.64 119.44 112.54 100.35 135.57 84.58 C 136.03 84.20 136.95 83.44 137.41 83.06 C 135.97 79.69 134.39 76.38 132.70 73.13 C 131.17 73.69 129.69 74.38 128.36 75.33 M 429.09 93.02 C 430.99 95.11 433.31 96.75 435.53 98.47 C 466.23 122.57 491.18 153.96 507.66 189.34 C 515.14 204.65 520.15 221.00 524.64 237.39 C 531.14 266.69 533.55 297.17 529.11 326.96 C 528.75 333.93 525.73 340.79 527.37 347.79 C 529.10 357.16 529.32 366.71 530.19 376.17 C 531.90 373.50 532.45 370.34 533.31 367.34 C 538.12 352.03 540.01 336.02 542.21 320.19 C 543.40 305.79 543.45 291.34 542.63 276.92 C 538.20 206.55 502.98 139.13 448.92 94.08 C 444.66 90.67 440.69 86.86 436.00 84.02 C 433.34 86.73 431.18 89.87 429.09 93.02 Z" />
<path fill="#363535" opacity="1.00" d=" M 363.95 13.95 C 376.13 7.27 391.60 8.67 403.33 15.68 C 415.52 22.18 424.15 34.42 427.20 47.79 C 429.72 58.00 428.49 69.48 421.96 77.99 C 418.30 83.33 412.67 86.67 407.95 90.91 C 420.55 108.75 430.01 128.49 440.36 147.66 C 459.60 183.88 477.35 220.99 491.36 259.58 C 497.62 278.50 504.76 297.25 508.32 316.93 C 513.18 336.11 515.43 355.86 516.52 375.59 C 517.76 403.33 516.23 431.40 509.45 458.42 C 506.47 468.52 503.62 478.68 499.36 488.34 C 492.72 504.54 483.19 519.49 471.67 532.66 C 459.16 546.39 443.64 557.66 426.13 564.10 C 410.03 569.75 393.01 572.56 375.98 573.21 C 369.61 573.15 363.41 575.00 357.02 574.65 C 346.36 575.42 335.68 576.20 324.98 576.42 C 318.63 576.18 312.36 577.68 306.01 577.40 C 298.48 577.19 290.64 575.95 284.23 571.74 C 280.82 569.60 278.28 566.41 275.57 563.49 C 266.65 563.67 257.80 562.62 248.93 561.80 C 238.96 560.59 229.11 558.00 219.00 558.22 C 177.33 557.98 135.67 557.82 94.00 557.89 C 86.86 557.72 79.29 558.66 72.68 555.29 C 61.72 550.31 55.06 539.60 49.58 529.38 C 43.37 517.88 39.42 505.37 36.23 492.76 C 33.92 481.43 31.24 469.74 33.46 458.17 C 35.01 450.69 42.22 444.74 49.95 445.21 C 59.01 444.33 67.59 448.21 75.02 452.98 C 79.06 455.47 82.18 459.10 85.90 462.00 C 92.40 451.13 98.74 439.84 108.34 431.32 C 110.52 429.31 113.11 427.78 115.02 425.50 C 111.78 425.34 108.54 425.17 105.32 424.77 C 99.58 424.03 93.77 424.78 88.04 423.95 C 80.75 422.90 73.34 423.91 66.05 422.79 C 66.26 416.19 67.25 409.65 67.72 403.08 C 68.35 391.70 70.81 380.48 71.00 369.08 C 70.05 367.39 68.34 366.34 66.91 365.09 C 55.60 356.36 48.61 342.28 48.57 327.98 C 48.03 313.65 52.66 298.37 63.58 288.59 C 68.52 283.74 74.87 280.69 81.28 278.30 C 83.25 269.93 83.78 261.32 84.86 252.82 C 85.97 245.41 86.87 237.98 87.63 230.53 C 104.75 229.50 121.85 231.95 138.96 231.17 C 134.07 223.41 128.56 215.86 125.75 207.02 C 120.34 194.44 119.36 180.15 121.88 166.76 C 124.13 157.90 127.28 149.26 130.92 140.88 C 138.01 124.03 144.41 106.74 154.14 91.17 C 155.67 88.59 157.68 86.27 158.74 83.43 C 151.53 78.01 145.89 70.07 144.87 60.94 C 141.41 37.45 160.63 13.91 183.96 11.36 C 194.53 10.06 205.14 15.09 211.74 23.26 C 214.42 26.50 216.16 30.36 218.30 33.95 C 223.34 32.97 227.85 30.37 232.76 28.92 C 243.30 25.81 254.13 23.59 265.07 22.47 C 272.72 22.19 280.38 22.26 288.03 22.44 C 304.60 23.61 320.98 27.43 336.41 33.59 C 339.05 34.65 341.54 36.18 344.37 36.73 C 348.17 27.29 354.71 18.59 363.95 13.95 M 232.46 39.62 C 214.03 46.46 196.75 56.83 183.13 71.13 C 166.26 87.49 154.89 108.54 146.48 130.27 C 141.00 146.40 131.01 161.48 130.87 179.02 C 130.12 197.19 138.43 214.47 149.81 228.18 C 151.45 229.99 153.20 232.38 155.95 232.20 C 163.30 232.37 170.65 232.30 178.01 232.37 C 182.17 232.40 186.81 232.11 189.89 228.92 C 187.21 225.25 183.72 221.71 183.27 216.95 C 183.03 213.46 182.77 209.11 185.93 206.76 C 188.29 211.16 189.36 216.35 193.10 219.91 C 199.28 226.81 210.50 229.76 218.69 224.76 C 218.78 221.97 218.74 219.18 218.51 216.40 C 213.51 212.77 207.89 209.94 203.62 205.37 C 200.74 202.61 197.72 198.63 199.38 194.43 C 200.65 192.01 203.75 192.64 206.00 192.48 C 218.34 192.75 230.69 192.47 243.03 192.70 C 246.54 192.76 251.51 194.69 250.88 199.02 C 251.12 201.96 248.59 203.88 246.55 205.52 C 240.70 209.79 234.24 213.27 227.34 215.49 C 227.18 217.31 227.00 219.13 227.22 220.95 C 227.28 224.44 231.06 225.88 233.61 227.39 C 244.55 231.90 257.41 233.11 268.47 228.35 C 274.51 225.95 279.30 221.45 284.95 218.41 C 291.27 223.95 293.54 232.89 292.85 241.04 C 292.10 258.30 277.70 273.74 260.48 275.46 C 259.64 278.98 259.39 282.62 259.75 286.23 C 264.71 286.65 269.78 286.29 274.50 284.64 C 278.53 283.30 282.62 281.25 287.00 282.00 C 292.33 282.77 297.64 281.51 302.98 281.30 C 312.35 280.06 321.96 280.22 331.08 277.45 C 339.15 276.12 347.21 274.39 354.67 270.95 C 367.89 266.39 380.64 260.28 391.88 251.89 C 413.45 236.19 430.96 215.45 444.67 192.66 C 446.11 189.96 449.03 186.95 447.21 183.74 C 441.10 170.74 434.14 158.16 427.64 145.36 C 421.32 133.68 415.39 121.79 408.70 110.32 C 404.13 102.46 398.47 95.33 392.64 88.38 C 377.68 70.35 359.21 54.86 337.70 45.28 C 323.64 38.58 308.31 35.07 292.93 33.04 C 272.59 30.58 251.94 33.56 232.46 39.62 M 269.88 237.88 C 264.05 245.90 263.14 256.26 262.27 265.84 C 277.39 263.17 288.67 245.53 282.92 230.84 C 278.36 232.74 273.99 235.17 269.88 237.88 M 218.08 234.25 C 212.05 236.59 205.33 236.11 199.23 234.34 C 194.76 236.57 191.43 241.49 186.05 241.71 C 177.37 242.04 168.68 241.58 160.00 241.65 C 138.75 241.58 117.53 240.17 96.28 240.31 C 95.15 245.65 95.04 251.13 94.33 256.53 C 93.25 266.05 91.41 275.49 90.56 285.04 C 90.29 286.86 92.22 287.68 93.32 288.72 C 98.75 292.76 102.97 298.44 105.15 304.86 C 107.36 310.94 107.17 317.57 106.64 323.93 C 105.54 335.38 99.02 346.12 89.34 352.33 C 86.97 353.66 84.49 354.78 82.19 356.23 C 80.51 374.51 78.38 392.76 76.61 411.03 C 76.68 411.77 76.80 413.26 76.86 414.01 C 81.56 414.55 86.30 414.29 91.02 414.47 C 103.43 416.19 116.02 415.99 128.52 416.69 C 135.64 417.79 142.89 417.11 150.02 418.24 C 159.04 418.60 168.03 419.48 177.06 419.43 C 181.07 419.41 185.00 420.31 189.01 420.39 C 197.06 420.21 205.00 421.86 213.06 421.43 C 220.92 422.06 228.78 422.77 236.68 422.53 C 236.81 405.61 239.54 388.83 240.40 371.95 C 240.65 369.42 238.28 367.88 236.94 366.06 C 232.55 361.33 229.96 355.33 227.71 349.38 C 225.70 344.15 226.19 338.42 226.26 332.94 C 227.28 323.08 232.72 313.38 241.65 308.63 C 248.66 303.89 257.62 304.73 265.59 305.68 C 278.12 308.87 290.94 312.23 303.99 311.24 C 324.83 310.06 344.97 300.39 359.14 285.09 C 359.90 284.21 360.40 283.14 360.95 282.12 C 357.52 283.42 354.51 285.54 351.30 287.27 C 343.84 291.32 336.26 295.15 328.47 298.52 C 323.86 300.64 318.76 301.18 313.96 302.70 C 300.17 305.85 285.74 304.42 272.25 300.54 C 264.72 298.08 256.77 298.35 248.98 298.75 C 248.89 298.31 248.70 297.42 248.61 296.98 C 249.45 288.83 250.12 280.64 251.28 272.53 C 252.17 264.45 252.73 256.24 255.33 248.49 C 256.24 245.86 256.86 243.14 256.94 240.35 C 249.43 240.50 241.71 240.25 234.66 237.39 C 231.11 236.22 228.07 233.99 224.73 232.42 C 222.38 232.28 220.26 233.58 218.08 234.25 M 493.53 317.56 C 489.72 324.51 484.75 330.70 480.01 337.00 C 461.92 360.56 438.05 379.47 411.38 392.44 C 405.91 394.99 400.68 398.13 394.87 399.87 C 365.71 409.96 333.49 410.62 303.76 402.54 C 290.03 399.60 277.09 393.75 264.68 387.31 C 259.35 384.68 254.79 380.79 249.53 378.07 C 248.84 383.36 248.35 388.67 248.10 394.00 C 247.09 406.72 245.82 419.41 244.88 432.13 C 236.28 433.20 227.65 431.86 219.07 431.43 C 212.35 431.70 205.73 430.18 199.02 430.41 C 194.00 430.49 189.07 429.30 184.05 429.42 C 176.66 429.64 169.38 428.08 161.99 428.35 C 153.67 427.31 145.28 427.25 136.90 427.10 C 135.95 433.05 137.33 439.00 137.76 444.93 C 138.20 450.67 139.49 456.29 141.27 461.76 C 145.73 479.98 154.80 496.92 166.60 511.43 C 178.51 525.63 193.85 536.95 211.03 543.94 C 222.32 549.02 234.91 549.25 246.91 551.42 C 254.59 552.05 262.16 554.20 269.90 553.61 C 269.57 550.31 267.77 547.49 266.69 544.43 C 264.18 535.72 262.35 526.85 260.96 517.90 C 258.07 503.50 257.17 488.68 258.47 474.05 C 259.34 468.45 260.12 462.45 263.93 457.97 C 266.72 453.61 271.88 451.30 276.99 451.55 C 286.85 451.00 296.24 455.24 304.02 460.98 C 307.48 463.48 310.33 466.72 313.91 469.07 C 323.46 457.29 333.95 445.97 346.91 437.88 C 359.63 429.24 374.13 423.55 389.09 420.26 C 404.21 417.76 419.84 417.87 434.77 421.50 C 452.32 426.39 468.60 436.96 478.57 452.41 C 484.51 461.90 489.31 472.58 489.55 483.96 C 490.99 483.03 491.19 481.19 491.78 479.72 C 493.97 472.88 496.89 466.28 498.42 459.25 C 501.14 448.96 502.83 438.44 504.57 427.96 C 508.62 389.58 506.47 350.36 496.83 312.93 C 495.49 314.29 494.43 315.88 493.53 317.56 Z" />
<path fill="#fffffe" opacity="1.00" d=" M 232.46 39.62 C 251.94 33.56 272.59 30.58 292.93 33.04 C 308.31 35.07 323.64 38.58 337.70 45.28 C 359.21 54.86 377.68 70.35 392.64 88.38 C 398.47 95.33 404.13 102.46 408.70 110.32 C 415.39 121.79 421.32 133.68 427.64 145.36 C 434.14 158.16 441.10 170.74 447.21 183.74 C 449.03 186.95 446.11 189.96 444.67 192.66 C 430.96 215.45 413.45 236.19 391.88 251.89 C 380.64 260.28 367.89 266.39 354.67 270.95 C 347.21 274.39 339.15 276.12 331.08 277.45 C 321.96 280.22 312.35 280.06 302.98 281.30 C 297.64 281.51 292.33 282.77 287.00 282.00 C 282.62 281.25 278.53 283.30 274.50 284.64 C 269.78 286.29 264.71 286.65 259.75 286.23 C 259.39 282.62 259.64 278.98 260.48 275.46 C 277.70 273.74 292.10 258.30 292.85 241.04 C 293.54 232.89 291.27 223.95 284.95 218.41 C 279.30 221.45 274.51 225.95 268.47 228.35 C 257.41 233.11 244.55 231.90 233.61 227.39 C 231.06 225.88 227.28 224.44 227.22 220.95 C 227.00 219.13 227.18 217.31 227.34 215.49 C 234.24 213.27 240.70 209.79 246.55 205.52 C 248.59 203.88 251.12 201.96 250.88 199.02 C 251.51 194.69 246.54 192.76 243.03 192.70 C 230.69 192.47 218.34 192.75 206.00 192.48 C 203.75 192.64 200.65 192.01 199.38 194.43 C 197.72 198.63 200.74 202.61 203.62 205.37 C 207.89 209.94 213.51 212.77 218.51 216.40 C 218.74 219.18 218.78 221.97 218.69 224.76 C 210.50 229.76 199.28 226.81 193.10 219.91 C 189.36 216.35 188.29 211.16 185.93 206.76 C 182.77 209.11 183.03 213.46 183.27 216.95 C 183.72 221.71 187.21 225.25 189.89 228.92 C 186.81 232.11 182.17 232.40 178.01 232.37 C 170.65 232.30 163.30 232.37 155.95 232.20 C 153.20 232.38 151.45 229.99 149.81 228.18 C 138.43 214.47 130.12 197.19 130.87 179.02 C 131.01 161.48 141.00 146.40 146.48 130.27 C 154.89 108.54 166.26 87.49 183.13 71.13 C 196.75 56.83 214.03 46.46 232.46 39.62 M 194.32 118.15 C 184.72 120.13 177.89 127.64 171.30 134.31 C 165.19 140.54 158.42 146.62 154.99 154.86 C 151.17 165.77 154.97 179.72 165.38 185.56 C 171.28 188.52 178.52 190.63 184.90 187.95 C 188.78 185.55 191.10 181.41 193.98 177.99 C 202.31 166.55 213.41 156.28 216.49 141.91 C 217.02 136.84 216.97 131.36 214.09 126.93 C 210.58 119.85 201.93 116.02 194.32 118.15 M 286.41 118.62 C 277.77 120.85 270.40 128.87 270.48 138.03 C 270.46 143.34 270.04 148.88 272.07 153.92 C 276.18 164.40 283.13 173.36 289.44 182.58 C 292.57 186.72 295.34 191.27 299.42 194.58 C 302.89 197.50 307.77 197.14 312.02 197.06 C 321.64 196.43 331.89 192.81 337.61 184.60 C 342.87 177.71 344.23 168.37 341.98 160.10 C 339.52 151.83 332.90 145.90 327.19 139.81 C 320.01 132.97 313.65 124.76 304.38 120.61 C 298.86 117.77 292.40 117.78 286.41 118.62 Z" />
<path fill="#363535" opacity="1.00" d=" M 128.36 75.33 C 129.69 74.38 131.17 73.69 132.70 73.13 C 134.39 76.38 135.97 79.69 137.41 83.06 C 136.95 83.44 136.03 84.20 135.57 84.58 C 112.54 100.35 91.64 119.44 74.57 141.57 C 53.64 168.12 38.58 199.17 29.78 231.77 C 26.90 244.04 24.38 256.42 22.94 268.95 C 21.06 286.35 21.36 303.93 22.76 321.35 C 26.38 353.87 35.83 385.82 51.30 414.69 C 52.85 418.21 55.79 421.33 55.82 425.35 C 52.52 426.19 49.27 427.20 46.04 428.28 C 42.38 423.83 40.19 418.45 37.56 413.38 C 32.61 403.67 28.24 393.67 24.67 383.37 C 19.63 367.87 14.66 352.22 12.86 335.95 C 9.35 314.44 8.83 292.50 10.79 270.81 C 12.49 257.99 13.80 245.06 17.36 232.57 C 29.79 180.93 58.99 133.84 98.48 98.49 C 107.99 90.21 117.96 82.46 128.36 75.33 Z" />
<path fill="#363535" opacity="1.00" d=" M 429.09 93.02 C 431.18 89.87 433.34 86.73 436.00 84.02 C 440.69 86.86 444.66 90.67 448.92 94.08 C 502.98 139.13 538.20 206.55 542.63 276.92 C 543.45 291.34 543.40 305.79 542.21 320.19 C 540.01 336.02 538.12 352.03 533.31 367.34 C 532.45 370.34 531.90 373.50 530.19 376.17 C 529.32 366.71 529.10 357.16 527.37 347.79 C 525.73 340.79 528.75 333.93 529.11 326.96 C 533.55 297.17 531.14 266.69 524.64 237.39 C 520.15 221.00 515.14 204.65 507.66 189.34 C 491.18 153.96 466.23 122.57 435.53 98.47 C 433.31 96.75 430.99 95.11 429.09 93.02 Z" />
<path fill="#363535" opacity="1.00" d=" M 194.32 118.15 C 201.93 116.02 210.58 119.85 214.09 126.93 C 216.97 131.36 217.02 136.84 216.49 141.91 C 213.41 156.28 202.31 166.55 193.98 177.99 C 191.10 181.41 188.78 185.55 184.90 187.95 C 178.52 190.63 171.28 188.52 165.38 185.56 C 154.97 179.72 151.17 165.77 154.99 154.86 C 158.42 146.62 165.19 140.54 171.30 134.31 C 177.89 127.64 184.72 120.13 194.32 118.15 M 189.42 145.53 C 183.93 147.91 182.15 156.08 187.09 159.90 C 191.23 164.74 199.82 161.91 200.87 155.83 C 202.49 149.46 195.70 143.10 189.42 145.53 Z" />
<path fill="#363535" opacity="1.00" d=" M 286.41 118.62 C 292.40 117.78 298.86 117.77 304.38 120.61 C 313.65 124.76 320.01 132.97 327.19 139.81 C 332.90 145.90 339.52 151.83 341.98 160.10 C 344.23 168.37 342.87 177.71 337.61 184.60 C 331.89 192.81 321.64 196.43 312.02 197.06 C 307.77 197.14 302.89 197.50 299.42 194.58 C 295.34 191.27 292.57 186.72 289.44 182.58 C 283.13 173.36 276.18 164.40 272.07 153.92 C 270.04 148.88 270.46 143.34 270.48 138.03 C 270.40 128.87 277.77 120.85 286.41 118.62 M 292.31 148.22 C 286.50 150.40 284.86 159.30 289.69 163.26 C 294.48 168.00 304.32 164.92 304.70 157.92 C 306.07 151.38 298.32 145.41 292.31 148.22 Z" />
<path fill="#fffffe" opacity="1.00" d=" M 189.42 145.53 C 195.70 143.10 202.49 149.46 200.87 155.83 C 199.82 161.91 191.23 164.74 187.09 159.90 C 182.15 156.08 183.93 147.91 189.42 145.53 Z" />
<path fill="#fffffe" opacity="1.00" d=" M 292.31 148.22 C 298.32 145.41 306.07 151.38 304.70 157.92 C 304.32 164.92 294.48 168.00 289.69 163.26 C 284.86 159.30 286.50 150.40 292.31 148.22 Z" />
<path fill="#e52521" opacity="1.00" d=" M 269.88 237.88 C 273.99 235.17 278.36 232.74 282.92 230.84 C 288.67 245.53 277.39 263.17 262.27 265.84 C 263.14 256.26 264.05 245.90 269.88 237.88 Z" />
<path fill="#fffffe" opacity="1.00" d=" M 218.08 234.25 C 220.26 233.58 222.38 232.28 224.73 232.42 C 228.07 233.99 231.11 236.22 234.66 237.39 C 241.71 240.25 249.43 240.50 256.94 240.35 C 256.86 243.14 256.24 245.86 255.33 248.49 C 252.73 256.24 252.17 264.45 251.28 272.53 C 250.12 280.64 249.45 288.83 248.61 296.98 C 248.70 297.42 248.89 298.31 248.98 298.75 C 256.77 298.35 264.72 298.08 272.25 300.54 C 285.74 304.42 300.17 305.85 313.96 302.70 C 318.76 301.18 323.86 300.64 328.47 298.52 C 336.26 295.15 343.84 291.32 351.30 287.27 C 354.51 285.54 357.52 283.42 360.95 282.12 C 360.40 283.14 359.90 284.21 359.14 285.09 C 344.97 300.39 324.83 310.06 303.99 311.24 C 290.94 312.23 278.12 308.87 265.59 305.68 C 257.62 304.73 248.66 303.89 241.65 308.63 C 232.72 313.38 227.28 323.08 226.26 332.94 C 226.19 338.42 225.70 344.15 227.71 349.38 C 229.96 355.33 232.55 361.33 236.94 366.06 C 238.28 367.88 240.65 369.42 240.40 371.95 C 239.54 388.83 236.81 405.61 236.68 422.53 C 228.78 422.77 220.92 422.06 213.06 421.43 C 205.00 421.86 197.06 420.21 189.01 420.39 C 185.00 420.31 181.07 419.41 177.06 419.43 C 168.03 419.48 159.04 418.60 150.02 418.24 C 142.89 417.11 135.64 417.79 128.52 416.69 C 116.02 415.99 103.43 416.19 91.02 414.47 C 86.30 414.29 81.56 414.55 76.86 414.01 C 76.80 413.26 76.68 411.77 76.61 411.03 C 78.38 392.76 80.51 374.51 82.19 356.23 C 84.49 354.78 86.97 353.66 89.34 352.33 C 99.02 346.12 105.54 335.38 106.64 323.93 C 107.17 317.57 107.36 310.94 105.15 304.86 C 102.97 298.44 98.75 292.76 93.32 288.72 C 92.22 287.68 90.29 286.86 90.56 285.04 C 91.41 275.49 93.25 266.05 94.33 256.53 C 95.04 251.13 95.15 245.65 96.28 240.31 C 117.53 240.17 138.75 241.58 160.00 241.65 C 168.68 241.58 177.37 242.04 186.05 241.71 C 191.43 241.49 194.76 236.57 199.23 234.34 C 205.33 236.11 212.05 236.59 218.08 234.25 M 154.40 262.15 C 153.02 270.86 152.66 279.70 151.66 288.46 C 150.86 301.35 149.15 314.17 148.62 327.08 C 148.60 330.95 147.21 334.81 148.08 338.66 C 154.44 338.46 160.77 339.30 167.12 339.43 C 167.79 338.56 168.23 337.60 168.44 336.56 C 169.02 323.00 171.03 309.53 171.45 295.95 C 172.75 289.35 173.08 282.63 173.38 275.92 C 173.47 271.43 174.86 267.02 174.41 262.52 C 167.74 262.53 161.05 261.69 154.40 262.15 M 121.31 298.93 C 120.12 311.53 118.87 324.13 118.23 336.78 C 124.96 337.38 131.87 337.95 138.57 336.89 C 139.35 321.52 141.65 306.22 142.23 290.86 C 135.87 289.69 129.38 289.77 122.94 289.57 C 121.51 292.48 121.62 295.78 121.31 298.93 M 180.39 293.17 C 180.11 308.80 177.74 324.29 177.01 339.89 C 183.82 340.68 190.70 340.19 197.54 340.82 C 197.64 335.19 198.73 329.64 198.80 324.01 C 199.16 313.77 200.67 303.61 200.87 293.36 C 194.03 293.65 187.21 292.78 180.39 293.17 M 108.32 346.27 C 108.19 348.72 108.18 351.18 108.29 353.65 C 130.56 353.89 152.75 356.16 175.00 356.89 C 184.68 357.60 194.40 358.23 204.09 358.15 C 204.46 355.55 204.62 352.93 204.51 350.31 C 196.33 350.56 188.14 350.52 179.98 349.80 C 166.99 349.13 153.98 348.76 141.00 347.74 C 135.29 347.37 129.52 348.02 123.85 347.04 C 118.72 346.12 113.50 346.23 108.32 346.27 M 108.40 364.29 C 108.18 375.43 106.56 386.47 106.25 397.60 C 108.73 397.70 111.21 397.71 113.70 397.65 C 114.10 394.55 114.34 391.44 114.42 388.33 C 118.93 388.21 123.48 388.85 127.95 388.11 C 134.72 386.87 137.73 378.47 135.60 372.49 C 134.41 368.25 130.20 365.63 126.03 365.05 C 120.21 364.12 114.28 364.34 108.40 364.29 M 142.42 366.33 C 141.69 377.44 140.47 388.52 140.07 399.65 C 142.57 399.76 145.08 399.78 147.59 399.68 C 147.70 396.80 148.09 393.94 148.29 391.07 C 153.33 389.85 158.85 392.02 163.68 389.66 C 171.08 386.38 173.06 374.57 166.60 369.47 C 159.32 365.05 150.49 366.72 142.42 366.33 M 173.23 374.58 C 176.75 374.69 180.27 374.78 183.77 375.21 C 183.69 383.81 182.48 392.36 181.95 400.95 C 184.20 402.45 186.98 402.29 189.52 401.85 C 190.75 393.38 190.62 384.79 191.52 376.29 C 194.50 374.82 198.28 376.30 201.56 375.55 C 202.93 374.04 202.14 371.70 202.43 369.85 C 196.76 368.11 190.76 368.89 184.94 368.57 C 181.64 368.54 178.38 367.79 175.09 367.85 C 172.83 369.17 173.59 372.37 173.23 374.58 Z" />
<path fill="#7cc43f" opacity="1.00" d=" M 154.40 262.15 C 161.05 261.69 167.74 262.53 174.41 262.52 C 174.86 267.02 173.47 271.43 173.38 275.92 C 173.08 282.63 172.75 289.35 171.45 295.95 C 171.03 309.53 169.02 323.00 168.44 336.56 C 168.23 337.60 167.79 338.56 167.12 339.43 C 160.77 339.30 154.44 338.46 148.08 338.66 C 147.21 334.81 148.60 330.95 148.62 327.08 C 149.15 314.17 150.86 301.35 151.66 288.46 C 152.66 279.70 153.02 270.86 154.40 262.15 Z" />
<path fill="#1aabe5" opacity="1.00" d=" M 121.31 298.93 C 121.62 295.78 121.51 292.48 122.94 289.57 C 129.38 289.77 135.87 289.69 142.23 290.86 C 141.65 306.22 139.35 321.52 138.57 336.89 C 131.87 337.95 124.96 337.38 118.23 336.78 C 118.87 324.13 120.12 311.53 121.31 298.93 Z" />
<path fill="#f8932f" opacity="1.00" d=" M 180.39 293.17 C 187.21 292.78 194.03 293.65 200.87 293.36 C 200.67 303.61 199.16 313.77 198.80 324.01 C 198.73 329.64 197.64 335.19 197.54 340.82 C 190.70 340.19 183.82 340.68 177.01 339.89 C 177.74 324.29 180.11 308.80 180.39 293.17 Z" />
<path fill="#fffffe" opacity="1.00" d=" M 493.53 317.56 C 494.43 315.88 495.49 314.29 496.83 312.93 C 506.47 350.36 508.62 389.58 504.57 427.96 C 502.83 438.44 501.14 448.96 498.42 459.25 C 496.89 466.28 493.97 472.88 491.78 479.72 C 491.19 481.19 490.99 483.03 489.55 483.96 C 489.31 472.58 484.51 461.90 478.57 452.41 C 468.60 436.96 452.32 426.39 434.77 421.50 C 419.84 417.87 404.21 417.76 389.09 420.26 C 374.13 423.55 359.63 429.24 346.91 437.88 C 333.95 445.97 323.46 457.29 313.91 469.07 C 310.33 466.72 307.48 463.48 304.02 460.98 C 296.24 455.24 286.85 451.00 276.99 451.55 C 271.88 451.30 266.72 453.61 263.93 457.97 C 260.12 462.45 259.34 468.45 258.47 474.05 C 257.17 488.68 258.07 503.50 260.96 517.90 C 262.35 526.85 264.18 535.72 266.69 544.43 C 267.77 547.49 269.57 550.31 269.90 553.61 C 262.16 554.20 254.59 552.05 246.91 551.42 C 234.91 549.25 222.32 549.02 211.03 543.94 C 193.85 536.95 178.51 525.63 166.60 511.43 C 154.80 496.92 145.73 479.98 141.27 461.76 C 139.49 456.29 138.20 450.67 137.76 444.93 C 137.33 439.00 135.95 433.05 136.90 427.10 C 145.28 427.25 153.67 427.31 161.99 428.35 C 169.38 428.08 176.66 429.64 184.05 429.42 C 189.07 429.30 194.00 430.49 199.02 430.41 C 205.73 430.18 212.35 431.70 219.07 431.43 C 227.65 431.86 236.28 433.20 244.88 432.13 C 245.82 419.41 247.09 406.72 248.10 394.00 C 248.35 388.67 248.84 383.36 249.53 378.07 C 254.79 380.79 259.35 384.68 264.68 387.31 C 277.09 393.75 290.03 399.60 303.76 402.54 C 333.49 410.62 365.71 409.96 394.87 399.87 C 400.68 398.13 405.91 394.99 411.38 392.44 C 438.05 379.47 461.92 360.56 480.01 337.00 C 484.75 330.70 489.72 324.51 493.53 317.56 Z" />
<path fill="#363535" opacity="1.00" d=" M 108.32 346.27 C 113.50 346.23 118.72 346.12 123.85 347.04 C 129.52 348.02 135.29 347.37 141.00 347.74 C 153.98 348.76 166.99 349.13 179.98 349.80 C 188.14 350.52 196.33 350.56 204.51 350.31 C 204.62 352.93 204.46 355.55 204.09 358.15 C 194.40 358.23 184.68 357.60 175.00 356.89 C 152.75 356.16 130.56 353.89 108.29 353.65 C 108.18 351.18 108.19 348.72 108.32 346.27 Z" />
<path fill="#363535" opacity="1.00" d=" M 108.40 364.29 C 114.28 364.34 120.21 364.12 126.03 365.05 C 130.20 365.63 134.41 368.25 135.60 372.49 C 137.73 378.47 134.72 386.87 127.95 388.11 C 123.48 388.85 118.93 388.21 114.42 388.33 C 114.34 391.44 114.10 394.55 113.70 397.65 C 111.21 397.71 108.73 397.70 106.25 397.60 C 106.56 386.47 108.18 375.43 108.40 364.29 M 115.63 371.61 C 115.32 374.95 115.21 378.31 115.34 381.66 C 119.07 381.78 122.85 382.10 126.57 381.53 C 129.41 378.98 129.15 373.34 125.46 371.63 C 122.21 371.06 118.89 371.28 115.63 371.61 Z" />
<path fill="#363535" opacity="1.00" d=" M 142.42 366.33 C 150.49 366.72 159.32 365.05 166.60 369.47 C 173.06 374.57 171.08 386.38 163.68 389.66 C 158.85 392.02 153.33 389.85 148.29 391.07 C 148.09 393.94 147.70 396.80 147.59 399.68 C 145.08 399.78 142.57 399.76 140.07 399.65 C 140.47 388.52 141.69 377.44 142.42 366.33 M 149.40 373.31 C 149.24 376.78 149.18 380.26 149.24 383.73 C 152.43 384.11 155.69 384.61 158.90 384.06 C 162.27 383.04 163.77 378.81 162.11 375.82 C 159.31 371.67 153.58 373.71 149.40 373.31 Z" />
<path fill="#363535" opacity="1.00" d=" M 173.23 374.58 C 173.59 372.37 172.83 369.17 175.09 367.85 C 178.38 367.79 181.64 368.54 184.94 368.57 C 190.76 368.89 196.76 368.11 202.43 369.85 C 202.14 371.70 202.93 374.04 201.56 375.55 C 198.28 376.30 194.50 374.82 191.52 376.29 C 190.62 384.79 190.75 393.38 189.52 401.85 C 186.98 402.29 184.20 402.45 181.95 400.95 C 182.48 392.36 183.69 383.81 183.77 375.21 C 180.27 374.78 176.75 374.69 173.23 374.58 Z" />
<path fill="#fffffe" opacity="1.00" d=" M 115.63 371.61 C 118.89 371.28 122.21 371.06 125.46 371.63 C 129.15 373.34 129.41 378.98 126.57 381.53 C 122.85 382.10 119.07 381.78 115.34 381.66 C 115.21 378.31 115.32 374.95 115.63 371.61 Z" />
<path fill="#fffffe" opacity="1.00" d=" M 149.40 373.31 C 153.58 373.71 159.31 371.67 162.11 375.82 C 163.77 378.81 162.27 383.04 158.90 384.06 C 155.69 384.61 152.43 384.11 149.24 383.73 C 149.18 380.26 149.24 376.78 149.40 373.31 Z" />
</svg>
